<svg viewBox="0 0 133.8 7.1" xmlns="http://www.w3.org/2000/svg"><path d="M10.6 3.8a1.3 1.3 0 1 0-2.5 0c0 .5.3 1 .8 1.2l-.3.2-.4.2-.8.3-1 .3-1 .2-1 .1h-1l-.9.1H0l1.7.2h3.8l1-.1 1-.2 1-.3.4-.2.4-.2.3-.2.3-.3a2.5 2.5 0 0 0 .4-.5c.2-.3.3-.5.3-.8m54.5 0a1.3 1.3 0 0 0-1.3-1.3 1 1 0 0 1 .9 1 1 1 0 0 1-1 1.1h-.8L28.4 5h35.5A1.3 1.3 0 0 0 65 3.8"/><path d="M66.2 2.4A3 3 0 0 0 64.7 1a3 3 0 0 0-1-.2h-.4a2.5 2.5 0 0 0-.5 0A2.7 2.7 0 0 0 61.4 2c-.3.4-.4.8-.5 1.2a1 1 0 0 0 0 .4c0 .2 0 .4.2.4l.1-.3L61 3a2.5 2.5 0 0 1 2.3-1.8h.4l.8.3c.4.2.8.6 1 1.1.2.5.2 1 .1 1.5a2.1 2.1 0 0 1-1.8 2H23.3l.2-.2.6-.3.5-.4.5-.4.5-.5.4-.5.4-.5.4-.5.3-.6.2-.6.2-.6V.8a1 1 0 0 0 .2-.3l-.1-.5s-.2 0-.3.3.1.6.2.6V1l-.3.5-.3.6-.4.5-.4.5-.4.4-.4.5c-.2 0-.4.2-.5.3l-.5.4-.6.3-.5.2-.6.3-.6.1-.6.2-.5.1-.6.2a196.1 196.1 0 0 0-3.8.8H64a3 3 0 0 0 2.3-1.8c.2-.3.3-.6.3-1 0-.5 0-1.3-.4-1.8"/><path d="m23.3.5-.3.3.1.6a5.7 5.7 0 0 1-.2.5l-.5.7a6.7 6.7 0 0 1-1.3 1.2 9 9 0 0 1-1.5 1l-.8.3a12.8 12.8 0 0 1-.8.3l-.9.2a13.8 13.8 0 0 1-.8.2l-1.8.2 1.3-.5a10.3 10.3 0 0 0 2-1.4l.9-.7.3-.6a8 8 0 0 0 .2-.3l.2-.3v-.5s-.2 0-.3.2v.6l-.2.1a6.3 6.3 0 0 1-.4.4 8.6 8.6 0 0 1-1 .7c-.6.4-1.3.8-2 1a18.3 18.3 0 0 1-1.2.5 37.2 37.2 0 0 1-1.5.5c-.4 0-.7.2-1.1.3l-1.2.3-3.4.8L11 7a43.4 43.4 0 0 0 1.8-.1 31.2 31.2 0 0 0 1.8-.2 21.8 21.8 0 0 0 1.8-.4 14.1 14.1 0 0 0 .9-.2c.3 0 .5-.2.8-.3l.9-.3a9.4 9.4 0 0 0 .8-.4 9.3 9.3 0 0 0 1.5-1 7 7 0 0 0 1.3-1.4l.4-.8a4.3 4.3 0 0 0 .2-.5l.2-.4-.1-.5m99.9 3.3a1.3 1.3 0 1 1 2.5 0 1.3 1.3 0 0 1-.8 1.2l.3.2.4.2.8.3 1 .3 1 .2 1 .1h.9l1 .1h2.5l-1.7.2h-3.8l-1-.1-1-.2-1-.3-.4-.2-.4-.2-.3-.2a1.9 1.9 0 0 1-.3-.3 2.5 2.5 0 0 1-.4-.5 1.2 1.2 0 0 1-.3-.8m-54.5 0c0-.7.5-1.3 1.2-1.3h.1a1 1 0 0 0-.9 1 1 1 0 0 0 1 1.1h.8l34.5.4H70a1.3 1.3 0 0 1-1.2-1.2"/><path d="M67.6 2.4A3 3 0 0 1 69.1 1a3 3 0 0 1 1-.2h.4a2.5 2.5 0 0 1 .4 0A2.7 2.7 0 0 1 72.4 2c.3.4.4.8.5 1.2a1 1 0 0 1 0 .4c0 .2 0 .4-.2.4 0 0-.2 0-.2-.3s.2-.6.3-.6c-.3-.9-1-1.6-2-1.7a2.1 2.1 0 0 0-.4 0H70a2.5 2.5 0 0 0-.7.2 2.3 2.3 0 0 0-1 1.1 3 3 0 0 0-.2 1.5 2.1 2.1 0 0 0 1.9 2h40.5l-.2-.2-.6-.3-.5-.4-.5-.4-.5-.5-.5-.5-.3-.5-.4-.5-.3-.6-.2-.6-.2-.6-.1-.3a1 1 0 0 1-.1-.3V0c.2 0 .3 0 .3.3V1h-.1V1l.3.5.3.6.3.5.4.5.5.4.4.5c.2 0 .3.2.5.3l.5.4c.2 0 .4.2.5.3l.6.2.6.3.5.1.6.2.6.1.6.2a196.1 196.1 0 0 1 3.7.8H69.8a3 3 0 0 1-2.3-1.8 3 3 0 0 1-.3-1c0-.5 0-1.3.4-1.8"/><path d="M110.5.5s.2.1.2.3v.6c0 .2 0 .3.2.5l.5.7a6.8 6.8 0 0 0 1.2 1.2 9 9 0 0 0 1.6 1 12.8 12.8 0 0 0 1.6.6l.8.2a13.4 13.4 0 0 0 2.7.4 13.7 13.7 0 0 1-1.3-.5 10.3 10.3 0 0 1-2.1-1.4l-.8-.7a4.3 4.3 0 0 1-.4-.6 8 8 0 0 1-.1-.3s-.2-.1-.2-.3v-.5s.2 0 .3.2v.6l.1.1.5.4a8.7 8.7 0 0 0 1 .7c.6.4 1.3.8 2 1a18.3 18.3 0 0 0 1.1.5l1.6.5 1.1.3 1.2.3 3.3.8-3.8-.1a43.4 43.4 0 0 1-1.8-.1 31.2 31.2 0 0 1-1.8-.2 21.8 21.8 0 0 1-1.8-.4 14.1 14.1 0 0 1-.9-.2l-.9-.3-.8-.3a9.4 9.4 0 0 1-.8-.4 9.3 9.3 0 0 1-1.5-1 7 7 0 0 1-1.3-1.4 5.6 5.6 0 0 1-.4-.8 4.4 4.4 0 0 1-.2-.5l-.2-.4.1-.5"/></svg>