<svg viewBox="0 0 133.911 9.383" xmlns="http://www.w3.org/2000/svg"><path d="M23.41 2.758 12.09 4.691l11.32 1.932c4.42-.755 34.017-1.178 38.438-1.932-4.421-.755-34.017-1.178-38.438-1.933"/><path d="m7.333 4.69 10.064-1.558c-2.306-.117-4.05-.24-4.916-.375L0 4.69l12.482 1.933c.866-.135 2.61-.258 4.916-.375L7.333 4.69M17.614 3l4.528-.635s-4.224.01-6.023-.944zm5.163-.718 2.933-.411s-2.736.006-3.901-.612zm-5.163 4.1 4.528.635s-4.224-.01-6.023.944zm5.163.718 2.933.411s-2.736-.006-3.901.612zm39.295 1.424-1.608-1.608 1.608-1.608 1.608 1.608Zm-3.1-1.115-.786-.786.786-.785.786.785ZM110.5 2.758l11.32 1.933-11.32 1.932c-4.42-.755-34.017-1.178-38.438-1.932 4.421-.755 34.017-1.178 38.438-1.933"/><path d="m126.577 4.69-10.064-1.558c2.306-.117 4.05-.24 4.916-.375L133.91 4.69l-12.482 1.933c-.866-.135-2.61-.258-4.916-.375l10.064-1.558M66.955 1.956C65.77 3.564 64.221 4.69 64.221 4.69s1.58 1.127 2.734 2.735c1.154-1.608 2.734-2.735 2.734-2.735s-1.549-1.126-2.734-2.734"/><path d="M66.955 8.069c-1.732-2.032-3.617-3.378-3.617-3.378s1.86-1.355 3.617-3.398a24.1 24.1 0 0 0 3.617 3.398s-1.885 1.346-3.617 3.378m0-8.07c-2.033 2.759-4.691 4.692-4.691 4.692s2.711 1.932 4.691 4.691c1.98-2.759 4.691-4.691 4.691-4.691s-2.658-1.933-4.691-4.692M116.297 3l-4.528-.635s4.224.01 6.023-.944zm-5.164-.718-2.933-.411s2.736.006 3.901-.612zm5.164 4.1-4.528.635s4.224-.01 6.023.944zm-5.164.718-2.933.411s2.736-.006 3.901.612zM71.838 8.524l1.608-1.608-1.608-1.608-1.608 1.608Zm3.1-1.115.786-.786-.786-.785-.786.785Z"/></svg>