<svg viewBox="0 0 133.3 10.6" xmlns="http://www.w3.org/2000/svg"><path d="m9 6.2 1 .1a15.9 15.9 0 0 1 3.7 1.2 12.4 12.4 0 0 1 1.4.7 29.2 29.2 0 0 1-1.6-.4l-1-.2-1-.3a19.9 19.9 0 0 1-1.8-.7l-1-.4H9M7.7 8.5a9 9 0 0 1 1.2.5h-.4L8 8.7l-.6-.2-.5-.1-1-.4-.6-.2-.2-.1a8.3 8.3 0 0 1 2.6.6M65.5.8A7.7 7.7 0 0 0 64 .1a3.6 3.6 0 0 0-3.3.6 4.5 4.5 0 0 0-.6.6 4 4 0 0 0-.5.7l-.1.2h.2l.5.2h1.4l.5-.1a2.8 2.8 0 0 0 .5-.2 2.5 2.5 0 0 0 .7-.5 2.4 2.4 0 0 1-.8.5 2.6 2.6 0 0 1-.4.1l-.5.1h-1.4l-.4-.2a4.3 4.3 0 0 1 1-1 3.4 3.4 0 0 1 3-.6l.8.3a7.2 7.2 0 0 1 .7.4c-.2.6-.6 1.1-1 1.6a10 10 0 0 1-1.6 1.4c-1 .8-2.3 1.4-3.5 1.9a37 37 0 0 1-7.9 2.1 66.5 66.5 0 0 1-8 .8 57.9 57.9 0 0 1-8.2-.3 120.8 120.8 0 0 1-16-3.2C14.1 4.2 9.1 3 4 2.3H3l.2.4.3.4a10.5 10.5 0 0 0 .8.9 13 13 0 0 0 1.5 1.3l.3.2H6l-2 .1-1 .1-.6.1h-.5V6l.2.2v.1l.5.5.5.4.5.3.2.1a8.2 8.2 0 0 0-1.4.3l-1.3.6-.6.3L0 9v.1l.7-.4.6-.2A8.8 8.8 0 0 1 4 7.9l.5.2.5.2.6.2 1 .4.6.2.6.1.5.1.6.1.7.2h.7-.2l-.4-.4-.7-.4a9.4 9.4 0 0 0-1.3-.6A8.5 8.5 0 0 0 5 7.6h-.4l-.4-.2a5.3 5.3 0 0 1-.5-.3l-.4-.3-.4-.3-.2-.2H3L4 6a30.3 30.3 0 0 1 2.9 0 17.7 17.7 0 0 0 2.5 1.2 20.6 20.6 0 0 0 1.9.7 19.1 19.1 0 0 0 1 .3l1 .3a31.8 31.8 0 0 0 2 .3l1 .2h1.1l.1.1-.1-.1-.2-.2-.5-.5-.9-.6a12.8 12.8 0 0 0-1.8-1 16.6 16.6 0 0 0-4-1l-1-.2H7.6a14.6 14.6 0 0 1-1.2-.9A12 12 0 0 1 5 3.3l-.2-.2L11 4.4l8 1.9a119 119 0 0 0 16 3.1 60.9 60.9 0 0 0 8.3.3 54.7 54.7 0 0 0 16-3.1A17 17 0 0 0 63 4.4 9.8 9.8 0 0 0 64.5 3c.5-.5 1-1.1 1.2-1.8V.9z"/><path d="m14 .8 2.9 1 2.9 1 2.8.8 3 .8 2.8.8 3 .7 1.4.3 1.5.3 1.5.2 1.4.2h.6l.2.1h.7c.5.2 1 .2 1.5.2h1.5l1.5.1h1.5A46 46 0 0 0 49 7l1.5-.1 1.5-.2 1.5-.3L55 6a45.8 45.8 0 0 0 3-.9l2.7-1v.3l-.2-.1a1.2 1.2 0 0 0 0-.1 1.8 1.8 0 0 0-.3-.1 2.6 2.6 0 0 0-.6-.1H59a5 5 0 0 0-.7 0 5.2 5.2 0 0 1 .7 0h.7a2.5 2.5 0 0 1 .6 0l.6.4a16.2 16.2 0 0 1-2.7 1.3l-3 1-1.4.3-1.5.4-1.5.2-1.5.3-3 .2a24.3 24.3 0 0 1-1.5.1h-4.5L38.7 8 37 7.8l-1.4-.2-1.6-.3-1.4-.3-1.5-.3a82.9 82.9 0 0 1-3-.8L25.4 5l-2.8-.9a109.9 109.9 0 0 1-2.9-1L14 .9zm49.7 6.5-.3-.2-.3-.2a3.2 3.2 0 0 0-.7-.2h-1.8l-.3.2-.3.1-.3.2-.7.3a5.3 5.3 0 0 0 1.3.8 4.6 4.6 0 0 0 1.5.3l-.7-.3-.3-.1-.4-.2-.5-.3-.2-.1h.2l.6-.3.3-.1h.3l.3-.1H63l.3.2.3.1a4.6 4.6 0 0 1 .6.4c0-.3-.3-.4-.5-.5m60.8-1.2a18.2 18.2 0 0 1-1 .5 19.9 19.9 0 0 1-1.9.7 18.3 18.3 0 0 1-1 .2l-.9.3a29.2 29.2 0 0 1-1.6.3 12.4 12.4 0 0 1 1.4-.7c1.2-.5 2.4-1 3.7-1.1l1-.2h.3m3.6 1.7h-.2l-.5.3-1.1.3-.5.2-.6.2h-.5l-.4.2a9.1 9.1 0 0 1 1.2-.6 8.3 8.3 0 0 1 2.6-.6M67.5.9v.2c.3.8.7 1.3 1.2 1.9a17 17 0 0 0 5.1 3.5c2.6 1 5.3 1.7 8 2.2a67.2 67.2 0 0 0 8.1 1 46.1 46.1 0 0 0 8.2-.4c5.6-.5 11-1.8 16.2-3l8-2a79 79 0 0 1 6.2-1.1l-.2.1a12.1 12.1 0 0 1-1.4 1.3 14.6 14.6 0 0 1-1.2.8h-.6l-1 .2-1 .1a16.6 16.6 0 0 0-3.9 1 12.8 12.8 0 0 0-1.8 1 11.1 11.1 0 0 0-.9.6l-.5.5-.2.2h1l1.1-.2 2-.4 1-.2 1-.3a20.6 20.6 0 0 0 2-.7 17.7 17.7 0 0 0 2.4-1.3 35.2 35.2 0 0 1 2.9 0l1 .2h.2l-.2.2-.4.4-.5.3a5.3 5.3 0 0 1-.4.2l-.4.2h-.4a8.7 8.7 0 0 0-2.7.6 9.4 9.4 0 0 0-1.3.6 8.9 8.9 0 0 0-.7.5l-.3.2-.2.2h.3l.3-.1.7-.1.5-.1.6-.2.6-.1.5-.1 1.1-.4.6-.2.5-.3.5-.2a8.1 8.1 0 0 1 1.6.2 8.8 8.8 0 0 1 1.3.5l.6.3.6.3-.5-.4-.7-.3-1.2-.5a8.2 8.2 0 0 0-1.4-.3l.2-.1.5-.4.4-.3.5-.5.1-.1.2-.3-.4-.2h-.6l-1.1-.2h-2l.2-.2a13 13 0 0 0 1.5-1.4 10.5 10.5 0 0 0 .8-.9l.2-.4.2-.3.1-.2h-.1l-.4.1h-.5a126 126 0 0 0-15.1 3.2 117 117 0 0 1-16 3.2A57.9 57.9 0 0 1 82 8a37 37 0 0 1-7.9-2c-1.2-.6-2.5-1.2-3.5-2A9.2 9.2 0 0 1 69 2.6 5 5 0 0 1 68 1a7.2 7.2 0 0 1 1.4-.7 3.4 3.4 0 0 1 3 .5A4.3 4.3 0 0 1 73.5 2l-.4.1-.5.1h-1.4a2.6 2.6 0 0 1-1.2-.8v.1a2.5 2.5 0 0 0 .7.6 2.8 2.8 0 0 0 .5.2h.5l.5.1h.9l.5-.2h.2l-.1-.2a4 4 0 0 0-.5-.7l-.6-.6a3.6 3.6 0 0 0-3.3-.6 5.3 5.3 0 0 0-.8.3 7.8 7.8 0 0 0-.7.4z"/><path d="m119.3.8-2.9 1a118.6 118.6 0 0 1-2.9 1l-2.8.8-3 .8-2.8.8-3 .7-1.4.3-1.5.3-1.5.2-1.4.2h-.6l-.2.1h-.7c-.5.2-1 .2-1.5.2h-1.5l-1.5.1h-3l-3-.3-1.4-.1-1.5-.2-1.5-.3-1.4-.3a45.8 45.8 0 0 1-3-.9l-2.7-1v.3l.2-.1v-.1l.3-.1a2.6 2.6 0 0 1 .6-.1A3.3 3.3 0 0 1 75 4a5.2 5.2 0 0 0-.6-.2h-.7a2.5 2.5 0 0 0-.6 0l-.6.4a16.2 16.2 0 0 0 2.7 1.3l3 1 1.4.3 1.5.4 1.5.2 1.5.3 3 .2a24.3 24.3 0 0 0 1.5.1H93l1.5-.1 1.6-.2 1.4-.2 1.6-.3 1.4-.3 1.5-.3 3-.8 2.8-.9 2.9-.9a109.9 109.9 0 0 0 8.5-3.2zM66.6 3.6a2.8 2.8 0 0 0 2.2 1.7l-2.2 4.3-2.2-4.3a2.8 2.8 0 0 0 2.2-1.7m0 7 3-5.7h-.4a3 3 0 0 1-2.6-2.3v-.1C66.4 3.7 65.4 4.9 64 5h-.3l2.9 5.7Zm3-3.3.3-.2.3-.2a3.2 3.2 0 0 1 .7-.2h1.8l.3.2.3.1.3.2.7.3a5.3 5.3 0 0 1-1.3.8 4.6 4.6 0 0 1-1.5.3l.7-.3.3-.1.4-.2.6-.3v-.2l-.7-.2-.3-.1-.3-.1h-1.5a2.5 2.5 0 0 0-.4 0l-.3.2-.3.1a4.6 4.6 0 0 0-.6.4l.5-.5"/><path d="m66.7 8.5 1.4-2.8H68c-.7 0-1.2-.7-1.3-1v-.2c-.2.5-.7 1.2-1.3 1.2h-.2l1.5 2.8Z"/></svg>