<svg viewBox="0 0 132.3 13.5" xmlns="http://www.w3.org/2000/svg" xmlns:xlink="http://www.w3.org/1999/xlink"><path d="M0 0a2.1 2.1 0 1 0-4.2 0A2.1 2.1 0 0 0 0 0" id="a"/><path d="M62.7 13c-1.3 0-2.4-1-2.5-2.2h.6a1.9 1.9 0 0 0 1.9 1.7 1.9 1.9 0 0 0 0-3.8 1.9 1.9 0 0 0-2 1.8h-.5A2.5 2.5 0 0 1 62.7 8a2.5 2.5 0 0 1 2.5 2.5 2.5 2.5 0 0 1-2.5 2.5m0-5.5a3 3 0 0 0-3 2.8h-.5A1.4 1.4 0 0 0 57.8 9a1.4 1.4 0 0 0-1.4 1.1 259.2 259.2 0 0 0-7.1-.2 201 201 0 0 0-4.6 0h-5l-5.1.1-10 .2-8.9.1-6.9.1a1.2 1.2 0 0 0-1.2-1.1 1.2 1.2 0 1 0 0 2.5c.6 0 1.1-.5 1.2-1.2l7 .2 8.7.1 10 .2h5.2l5 .1h4.6a259.2 259.2 0 0 0 4.1-.1l3-.2c.2.6.8 1 1.4 1a1.4 1.4 0 0 0 1.4-1.1h.6a3 3 0 0 0 2.9 2.6 3 3 0 0 0 3-3 3 3 0 0 0-3-2.9m-57.4 3a.8.8 0 1 1-1.6 0 .8.8 0 0 1 1.6 0m-2.9 0c0 .3-.2.6-.5.6S0 10.9 0 10.6s1.6-.5 2-.5c.2 0 .4.3.4.5"/><path d="M53.5 6.5a.5.5 0 0 1 .5.5.5.5 0 0 1-.5.4.5.5 0 0 1-.5-.4.5.5 0 0 1 .5-.5m2 .6a.4.4 0 0 1 .3-.1h.3a.5.5 0 0 1-.3.9.5.5 0 0 1-.3-.8m-4.7 0a.4.4 0 0 1 .4-.2l.3.1a.5.5 0 0 1-.3.8.5.5 0 0 1-.3-.8m6.4 1.2h-1a.9.9 0 0 0 .1-1.4.9.9 0 0 0-.6-.3.9.9 0 0 0-.6.3.9.9 0 0 0 0 1.3 65.4 65.4 0 0 0-1 0 1.3 1.3 0 0 0 .6-1.1 1.3 1.3 0 0 0-.4-1 1.3 1.3 0 0 0-.9-.4A1.3 1.3 0 0 0 52.2 7a1.3 1.3 0 0 0 .5 1 45.6 45.6 0 0 0-.6 0h-.4a.9.9 0 0 0 0-1.3.9.9 0 0 0-.5-.2.9.9 0 0 0-.7.2.9.9 0 0 0 .1 1.3h-4l-6 .4-11.6.5-5.3.3H29l11.5-.1 6.2-.1 2.9-.1a145 145 0 0 0 2.5-.2l2.1-.1a53 53 0 0 0 1.7-.2l1.4-.1zm9.8 2.4A2.5 2.5 0 0 1 69.6 8a2.5 2.5 0 0 1 2.5 2.3h-.6a1.9 1.9 0 0 0-2-1.7 1.9 1.9 0 0 0 0 3.8c1 0 1.8-.8 2-1.7h.6a2.5 2.5 0 0 1-2.5 2.3 2.5 2.5 0 0 1-2.5-2.5m-.5 0a3 3 0 0 0 3 2.9 3 3 0 0 0 2.9-2.6 212.4 212.4 0 0 0 .6 0 1.4 1.4 0 0 0 1.4 1 1.4 1.4 0 0 0 1.3-.9 222.7 222.7 0 0 0 11.8.3h5l5-.1 10.1-.2 8.8-.1 7-.2c0 .7.5 1.2 1.2 1.2a1.2 1.2 0 1 0 0-2.5c-.7 0-1.2.5-1.2 1.1h-7l-8.8-.2-10-.2h-5.1l-5-.1H83a251.3 251.3 0 0 0-4.2.1l-3 .1a1.4 1.4 0 0 0-1.3-1c-.8 0-1.3.5-1.4 1.2h-.6a3 3 0 0 0-3-2.8 3 3 0 0 0-2.9 3m60.4 0a.8.8 0 1 0 1.6 0 .8.8 0 0 0-1.6 0m2.8 0c0 .3.2.6.5.6s2-.3 2-.6-1.7-.5-2-.5a.5.5 0 0 0-.5.5"/><path d="M79.2 7a.5.5 0 0 1-.4.4.5.5 0 0 1-.5-.4.5.5 0 0 1 .5-.5c.2 0 .4.2.4.5m-2.3.4a.5.5 0 0 1-.4.5.5.5 0 0 1-.4-.8.4.4 0 0 1 .4-.1.4.4 0 0 1 .4.4m4.6 0a.5.5 0 0 1-.4.4.5.5 0 0 1 0-.9.5.5 0 0 1 .4.4m-6.6 1 1.5.1 1.6.2 2.2.1 2.5.2h2.8l6.2.2 11.6.1h5.2l-5.2-.3-11.6-.5-6.1-.3h-2.9a148.1 148.1 0 0 0-1 0 .9.9 0 0 0 .3-.8.9.9 0 0 0-.3-.6.9.9 0 0 0-.6-.2.9.9 0 0 0-.6.2.9.9 0 0 0 0 1.3h-.9a1.3 1.3 0 0 0 .5-1 1.3 1.3 0 0 0-1.3-1.4 1.3 1.3 0 0 0-1 .4 1.3 1.3 0 0 0 .2 2 65.3 65.3 0 0 0-1 0 .9.9 0 0 0 0-1.2.9.9 0 0 0-.5-.3.9.9 0 0 0-.7.3A.9.9 0 0 0 76 8h-1zM66.1 0a4 4 0 1 0 0 8 4 4 0 0 0 0-8m0 .4A3.5 3.5 0 0 1 69.7 4a3.5 3.5 0 0 1-7.1 0A3.5 3.5 0 0 1 66.1.4"/><path d="M66.1 1.6A2.3 2.3 0 0 0 63.8 4 2.3 2.3 0 0 0 66 6.3 2.3 2.3 0 0 0 68.5 4 2.3 2.3 0 0 0 66 1.6m0 5.6a3.2 3.2 0 1 1 0-6.4 3.2 3.2 0 0 1 0 6.4"/><path d="M68 4a1.8 1.8 0 1 1-3.7 0A1.8 1.8 0 0 1 68 4"/><use transform="matrix(.35278 0 0 -.35278 62.3 6.2)" xlink:href="#a"/><use transform="matrix(.35278 0 0 -.35278 71.4 6.2)" xlink:href="#a"/></svg>