P3
49 1
255
0 0 255 0 48 206 126 140 141 132 63 161 140 70 20 185 106 217 190 0 255 191 237 210 22 145 121 224 62 45 230 126 35 241 196 15 248 202 198 255 0 0 255 102 102 255 120 120 255 125 0 255 125 125 255 141 141 255 150 150 255 153 153 255 166 166 255 180 179 255 181 181 255 182 181 255 185 184 255 185 185 255 187 186 255 188 188 255 190 190 255 191 190 255 193 193 255 197 197 255 205 204 255 205 205 255 206 206 255 210 210 255 213 213 255 216 215 255 217 217 255 222 222 255 23 0 255 230 230 255 49 49 255 51 51 255 83 83 255 99 99 45 194 107 53 152 219 
