<svg viewBox="0 0 133.775 7.098" xmlns="http://www.w3.org/2000/svg"><g transform="matrix(.35278 0 0 -.35278 10.585 3.809)" clip-path="url(#a)"><path d="M0 0a3.554 3.554 0 1 1-7.108 0c0-1.517.955-2.802 2.293-3.312-.017-.011-.03-.025-.047-.035-.28-.183-.558-.392-.87-.581l-1.015-.532c-.704-.357-1.508-.644-2.33-.955-.855-.232-1.714-.563-2.64-.739-.924-.175-1.846-.447-2.805-.552-.954-.127-1.905-.296-2.851-.387l-2.789-.232c-.905-.089-1.786-.071-2.62-.11l-2.353-.068-4.868.076 4.855-.458 2.362-.117c.84-.027 1.726-.114 2.644-.096l2.835.012c.967.018 1.949.113 2.934.167.987.031 1.964.233 2.935.342.973.107 1.912.381 2.835.559.907.262 1.796.504 2.614.839l1.189.511c.377.189.731.407 1.077.6.352.181.657.429.955.651.302.216.579.437.815.69.501.459.876.959 1.158 1.398.074.118.12.221.179.331C-.228-1.428 0-.741 0 0"/></g><g transform="matrix(.35278 0 0 -.35278 65.098 3.775)" clip-path="url(#b)"><path d="M0 0c0 1.973-1.6 3.573-3.573 3.573-.105 0-.203-.022-.306-.031A2.952 2.952 0 0 0-1.223.611 2.961 2.961 0 0 0-4.184-2.35h-2.061l-97.865-1.223H-3.532v.004A3.57 3.57 0 0 1 0 0"/></g><g transform="matrix(.35278 0 0 -.35278 66.15 2.359)" clip-path="url(#c)"><path d="M0 0c-.93 1.635-2.387 2.939-4.089 3.615a8.352 8.352 0 0 1-2.674.601h-.618c-.269.005-.458-.034-.691-.051a7.14 7.14 0 0 1-1.306-.26A7.68 7.68 0 0 1-13.564.94c-.718-1.002-1.135-2.174-1.29-3.36-.089-.229-.137-.563-.137-.959.001-.708.252-1.142.533-1.282.248-.123.531.252.531.961-.001.708-.502 1.581-.633 1.581-.013 0-.021-.015-.034-.017.795 2.553 2.985 4.54 5.476 4.951.373.07.753.11 1.13.108.179-.006.4.009.541-.013l.615-.062c.69-.12 1.42-.357 2.062-.701C-3.465 1.471-2.453.328-1.886-.959c.618-1.323.559-2.642.456-4.26-.126-1.234-.71-2.648-1.685-3.599-.966-.973-2.245-1.648-3.612-1.807-.628-.082-1.481-.054-2.308-.059h-112.493c.214.114.428.229.643.338.555.291 1.074.649 1.61.969.531.329 1.02.723 1.529 1.081.504.366.962.795 1.441 1.188.472.403.896.862 1.343 1.289.436.439.825.926 1.236 1.384.395.474.746.985 1.119 1.473.351.505.663 1.037.994 1.552.302.534.577 1.083.856 1.625l.704 1.689.556 1.733.166.727c.131.209.239.53.31.923.126.697-.044 1.169-.295 1.356-.222.166-.568-.153-.694-.85s.211-1.646.34-1.669c.047-.008.091.02.135.041l-.164-.459-.746-1.632-.876-1.555-.989-1.475c-.369-.463-.716-.94-1.098-1.387-.403-.43-.782-.879-1.201-1.29-.435-.395-.843-.815-1.294-1.187-.463-.359-.898-.747-1.377-1.079-.487-.322-.948-.677-1.45-.97-.509-.284-.992-.603-1.514-.856-.525-.245-1.03-.527-1.566-.741-.541-.207-1.063-.448-1.611-.625-.552-.168-1.091-.363-1.646-.51-.558-.134-1.103-.308-1.656-.456l-1.674-.386-1.7-.317a555.894 555.894 0 0 1-10.52-2.371h10.98v.002H-9.035c.817.01 1.616-.038 2.622.079 1.911.227 3.709 1.164 5.05 2.525.677.679 1.216 1.489 1.628 2.353.414.88.696 1.757.808 2.818C1.208-3.717.98-1.607 0 0"/></g><g transform="matrix(.35278 0 0 -.35278 23.277 .541)" clip-path="url(#d)"><path d="M0 0c-.222.165-.568-.153-.694-.85-.113-.629.148-1.456.295-1.63a16.247 16.247 0 0 0-.69-1.241c-.444-.709-.875-1.427-1.391-2.083-1.036-1.313-2.265-2.462-3.601-3.458a25.378 25.378 0 0 0-4.282-2.563c-.745-.371-1.521-.682-2.293-.992a36.226 36.226 0 0 0-2.358-.834c-.798-.24-1.597-.482-2.41-.675a39.076 39.076 0 0 0-2.447-.54c-1.638-.33-3.3-.544-4.961-.736h-.006c1.213.457 2.409.964 3.576 1.543 2.116 1.043 4.147 2.302 5.961 3.837.896.779 1.498 1.29 2.231 2.223.37.462.746 1.026 1.035 1.538.061.109.233.469.41.845.226.103.474.48.685.976.277.652.215 1.15.012 1.388-.18.21-.588-.024-.865-.676-.211-.497-.191-1.193-.117-1.52-.123-.134-.239-.277-.363-.41a17.935 17.935 0 0 0-1.233-1.157 24.451 24.451 0 0 0-2.702-1.986c-1.879-1.205-3.896-2.181-5.972-3.018a51.942 51.942 0 0 0-3.155-1.161c-1.059-.372-3.216-1.087-4.299-1.396-1.087-.295-2.163-.637-3.259-.914l-3.301-.822-9.566-2.275 10.873.38c1.718.06 3.435.129 5.149.261a88.32 88.32 0 0 1 5.129.561c1.701.27 3.398.564 5.073.976a40 40 0 0 1 2.5.665c.829.235 1.646.52 2.46.804.81.3 1.615.613 2.403.968.79.35 1.569.728 2.322 1.154a26.333 26.333 0 0 1 4.284 2.91c1.324 1.11 2.526 2.371 3.516 3.784.493.707.938 1.448 1.309 2.226.217.464.403.942.562 1.431.207.135.376.561.475 1.11C.421-.66.251-.187 0 0"/></g><g transform="matrix(.35278 0 0 -.35278 123.191 3.809)" clip-path="url(#e)"><path d="M0 0a3.554 3.554 0 1 0 7.108 0 3.546 3.546 0 0 0-2.293-3.312c.017-.011.03-.025.047-.035.28-.183.558-.392.87-.581l1.015-.532c.704-.357 1.508-.644 2.33-.955.855-.232 1.714-.563 2.64-.739.924-.175 1.846-.447 2.805-.552.954-.127 1.905-.296 2.851-.387l2.789-.232c.905-.089 1.786-.071 2.62-.11l2.353-.068 4.868.076-4.855-.458-2.362-.117c-.84-.027-1.726-.114-2.644-.096l-2.835.012c-.967.018-1.949.113-2.934.167-.987.031-1.964.233-2.935.342-.973.107-1.912.381-2.835.559-.907.262-1.796.504-2.613.839l-1.19.511c-.377.189-.731.407-1.077.6-.352.181-.657.429-.955.651a5.374 5.374 0 0 0-.815.69A7.047 7.047 0 0 0 .795-2.329c-.074.118-.12.221-.179.331A3.538 3.538 0 0 0 0 0"/></g><g transform="matrix(.35278 0 0 -.35278 68.678 3.775)" clip-path="url(#f)"><path d="M0 0c0 1.973 1.6 3.573 3.573 3.573.105 0 .203-.022.306-.031A2.952 2.952 0 0 1 1.223.611 2.961 2.961 0 0 1 4.184-2.35h2.061l97.865-1.223H3.532v.004A3.57 3.57 0 0 0 0 0"/></g><g transform="matrix(.35278 0 0 -.35278 67.626 2.359)" clip-path="url(#g)"><path d="M0 0c.93 1.635 2.387 2.939 4.089 3.615a8.352 8.352 0 0 0 2.674.601h.618c.269.005.458-.034.691-.051a7.14 7.14 0 0 0 1.306-.26A7.68 7.68 0 0 0 13.564.94c.718-1.002 1.135-2.174 1.29-3.36.089-.229.137-.563.137-.959-.001-.708-.252-1.142-.533-1.282-.248-.123-.531.252-.531.961.001.708.502 1.581.633 1.581.013 0 .021-.015.034-.017-.795 2.553-2.985 4.54-5.476 4.951-.373.07-.753.11-1.13.108-.179-.006-.4.009-.541-.013l-.615-.062a6.991 6.991 0 0 1-2.062-.701C3.465 1.471 2.453.328 1.886-.959c-.618-1.323-.559-2.642-.456-4.26.126-1.234.71-2.648 1.685-3.599.966-.973 2.245-1.648 3.612-1.807.628-.082 1.481-.054 2.308-.059h112.493c-.214.114-.428.229-.643.338-.555.291-1.074.649-1.61.969-.531.329-1.02.723-1.529 1.081-.504.366-.962.795-1.441 1.188-.472.403-.896.862-1.343 1.289-.436.439-.825.926-1.236 1.384-.395.474-.746.985-1.119 1.473-.351.505-.663 1.037-.994 1.552-.302.534-.577 1.083-.856 1.625l-.704 1.689-.556 1.733-.166.727c-.131.209-.239.53-.31.923-.126.697.044 1.169.295 1.356.222.166.568-.153.694-.85s-.211-1.646-.34-1.669c-.047-.008-.091.02-.135.041l.164-.459.746-1.632.876-1.555.989-1.475c.369-.463.716-.94 1.098-1.387.403-.43.782-.879 1.201-1.29.435-.395.843-.815 1.294-1.187.463-.359.898-.747 1.377-1.079.487-.322.948-.677 1.45-.97.509-.284.992-.603 1.514-.856.525-.245 1.03-.527 1.566-.741.541-.207 1.063-.448 1.611-.625.552-.168 1.091-.363 1.646-.51.558-.134 1.103-.308 1.656-.456l1.675-.386 1.699-.317a555.894 555.894 0 0 0 10.52-2.371h-10.98v.002H9.035c-.817.01-1.616-.038-2.622.079-1.911.227-3.709 1.164-5.05 2.525C.686-9.846.147-9.036-.265-8.172c-.414.88-.696 1.757-.808 2.818C-1.208-3.717-.98-1.607 0 0"/></g><g transform="matrix(.35278 0 0 -.35278 110.499 .541)" clip-path="url(#h)"><path d="M0 0c.222.165.568-.153.694-.85.113-.629-.148-1.456-.295-1.63.196-.388.435-.832.69-1.241.444-.709.875-1.427 1.391-2.083 1.036-1.313 2.265-2.462 3.601-3.458a25.378 25.378 0 0 1 4.282-2.563c.745-.371 1.521-.682 2.293-.992.774-.31 1.564-.578 2.358-.834.798-.24 1.597-.482 2.41-.675.81-.203 1.624-.389 2.447-.54 1.638-.33 3.3-.544 4.961-.736h.006a38.846 38.846 0 0 0-3.576 1.543c-2.116 1.043-4.147 2.302-5.961 3.837-.896.779-1.498 1.29-2.231 2.223-.37.462-.746 1.026-1.035 1.538a22.82 22.82 0 0 0-.41.845c-.226.103-.474.48-.685.976-.277.652-.215 1.15-.012 1.388.18.21.588-.024.865-.676.211-.497.191-1.193.117-1.52.123-.134.239-.277.363-.41.395-.405.804-.793 1.232-1.157a24.557 24.557 0 0 1 2.703-1.986c1.879-1.205 3.896-2.181 5.972-3.018a51.942 51.942 0 0 1 3.155-1.161c1.059-.372 3.216-1.087 4.299-1.396 1.087-.295 2.163-.637 3.259-.914l3.301-.822 9.566-2.275-10.873.38c-1.718.06-3.435.129-5.149.261a88.32 88.32 0 0 0-5.129.561c-1.701.27-3.398.564-5.073.976a40 40 0 0 0-2.5.665c-.829.235-1.646.52-2.46.804-.81.3-1.615.613-2.403.968-.79.35-1.569.728-2.322 1.154a26.333 26.333 0 0 0-4.284 2.91c-1.324 1.11-2.526 2.371-3.516 3.784A15.774 15.774 0 0 0 .742-3.898c-.217.464-.403.942-.562 1.431-.207.135-.376.561-.475 1.11C-.421-.66-.251-.187 0 0"/></g></svg>
